<svg width="368" height="1101" viewBox="0 0 368 1101" fill="none" xmlns="http://www.w3.org/2000/svg">
<g opacity="0.8">
<g opacity="0.8">
<path fill-rule="evenodd" clip-rule="evenodd" d="M0 706.503C0 607.477 79.9259 527.084 178.814 526.213H187.48V571.809H178.814V571.699C106.301 572.415 47.7157 631.39 47.7157 704.025C47.7157 777.104 107.018 836.369 180.147 836.369C253.275 836.369 312.578 777.104 312.578 704.025V276H360.862V706.503C360.862 806.068 280.064 886.812 180.431 886.812C80.7999 886.812 0 806.068 0 706.503ZM0 1051.67V932.742H368V982.617H47.7157V1051.67L0 1051.67ZM76.232 1101H124.496V1051.67H368V1003.44H76.232V1101ZM76.232 705.324C76.232 762.548 122.671 808.954 179.932 808.954C237.194 808.954 283.63 762.548 283.63 705.324H284.048V276.001H233.132V705.324C233.132 735.298 208.809 759.606 178.813 759.606C148.82 759.606 124.496 735.298 124.496 705.324C124.496 675.35 148.82 651.041 178.813 651.041C181.764 651.041 184.659 651.281 187.48 651.735V601.97C184.986 601.79 182.471 601.695 179.932 601.695C122.67 601.695 76.232 648.102 76.232 705.324Z" fill="#D36500"/>
<path fill-rule="evenodd" clip-rule="evenodd" d="M36.8269 478.059V474.854C36.8269 471.008 38.1109 469.246 41.1578 468.604C44.8454 467.803 47.251 467.162 48.2146 466.361V461.071C47.251 461.714 45.6473 462.354 41.4788 463.155C37.9497 463.957 35.8652 465.239 34.9028 467.642H34.5831C33.6195 464.758 31.5349 462.353 28.1682 462.353C25.6016 462.353 23.5157 463.474 22.3923 465.077C21.1102 466.841 20.3077 469.084 20.3077 473.573C20.3077 477.419 20.6293 480.303 21.1102 483.188H48.214V478.059H36.8256H36.8269ZM24.4793 478.059C24.3182 477.258 24.1596 476.137 24.1596 474.213C24.1596 469.405 26.083 467.641 28.6491 467.641C31.8571 467.641 32.98 471.008 32.98 474.693V478.058L24.4793 478.059ZM8.12249 473.411V473.25C8.12249 458.507 19.5077 447.128 33.9417 447.128C48.6961 447.128 60.0813 458.507 60.0813 473.411C60.0813 488.157 48.6961 499.855 33.9417 499.855C19.5077 499.855 8.12249 488.157 8.12249 473.411ZM12.6126 473.411C12.6126 461.552 22.2349 452.898 34.1016 452.898C45.9695 452.898 55.5918 461.552 55.4326 473.25C55.4326 485.271 45.9695 494.087 33.9417 494.087C22.2349 494.087 12.6126 485.27 12.6126 473.572V473.411Z" fill="#D36500"/>
</g>
<rect opacity="0.8" x="233" y="276" width="276" height="51" transform="rotate(-90 233 276)" fill="url(#paint0_linear)"/>
</g>
<defs>
<linearGradient id="paint0_linear" x1="509" y1="242.303" x2="243.932" y2="242.303" gradientUnits="userSpaceOnUse">
<stop stop-color="#D36500" stop-opacity="0"/>
<stop offset="1" stop-color="#D36500"/>
</linearGradient>
</defs>
</svg>
