<?xml version="1.0" ?><!DOCTYPE svg  PUBLIC '-//W3C//DTD SVG 1.1//EN'  'http://www.w3.org/Graphics/SVG/1.1/DTD/svg11.dtd'><svg enable-background="new 0 0 512 512" height="512px" id="Layer_1" version="1.1" viewBox="0 0 512 512" width="512px" xml:space="preserve" xmlns="http://www.w3.org/2000/svg" xmlns:xlink="http://www.w3.org/1999/xlink"><g id="_x31_57_x2C__Twitter_x2C__Location_x2C__Map"><g id="XMLID_5063_"><g id="XMLID_6732_"><g><g><g><path d="M256.827,432.671c-37.131-31.858-70.307-69.121-94.331-106.104        c-27.729-42.684-42.386-83.005-42.386-116.606C120.11,134.991,181.106,74,256.08,74c74.886,0,135.81,60.991,135.81,135.96        c0,31.545-17.333,75.183-48.806,122.874C318.235,370.488,286.104,407.545,256.827,432.671z M256,113.94        c-51.203,0-92.86,41.657-92.86,92.86c0,51.209,41.657,92.87,92.86,92.87c51.209,0,92.87-41.661,92.87-92.87        C348.87,155.597,307.209,113.94,256,113.94z" fill="#FFF500"/></g></g></g><g><g><path d="M256,291.67c-46.792,0-84.86-38.073-84.86-84.87c0-46.792,38.068-84.86,84.86-84.86c46.798,0,84.87,38.068,84.87,84.86       C340.87,253.597,302.798,291.67,256,291.67z M256,141.94c-35.764,0-64.86,29.096-64.86,64.86c0,35.77,29.096,64.87,64.86,64.87       c35.77,0,64.87-29.101,64.87-64.87C320.87,171.036,291.77,141.94,256,141.94z"/></g><g><path d="M256.689,466c-2.234,0-4.466-0.746-6.3-2.234c-43.852-35.583-83.405-78.891-111.374-121.943       C108.33,294.586,92.11,248.989,92.11,209.96C92.11,119.552,165.667,46,256.08,46c90.325,0,163.81,73.552,163.81,163.96       c0,36.966-18.978,86.08-53.436,138.297c-30.08,45.58-68.831,88.818-103.659,115.663C260.994,465.309,258.841,466,256.689,466z        M256.08,66c-79.385,0-143.97,64.58-143.97,143.96c0,67.694,57.873,160.649,144.697,233.182       c67.55-55.151,143.083-165.96,143.083-233.182C399.89,130.58,335.377,66,256.08,66z"/></g></g></g></g></g><g id="Layer_1_1_"/></svg>